<svg width="666" height="106" viewBox="0 0 666 106" fill="none" xmlns="http://www.w3.org/2000/svg">
<path opacity="0.5" d="M72.72 103L67.68 87.16H30.24L25.2 103H0L34.272 2.19999H63.648L97.92 103H72.72ZM37.152 65.56H60.768L48.96 28.552L37.152 65.56ZM169.171 50.728C177.427 56.008 181.555 63.592 181.555 73.48C181.555 82.216 178.435 89.32 172.195 94.792C165.955 100.264 158.227 103 149.011 103H106.675V2.19999H146.131C155.155 2.19999 162.691 4.88799 168.739 10.264C174.883 15.544 177.955 22.456 177.955 31C177.955 39.064 175.027 45.64 169.171 50.728ZM146.131 23.8H129.715V41.656H146.131C148.723 41.656 150.835 40.84 152.467 39.208C154.099 37.48 154.915 35.32 154.915 32.728C154.915 30.136 154.099 28.024 152.467 26.392C150.835 24.664 148.723 23.8 146.131 23.8ZM149.011 81.4C151.891 81.4 154.195 80.536 155.923 78.808C157.651 76.984 158.515 74.632 158.515 71.752C158.515 68.872 157.651 66.568 155.923 64.84C154.195 63.016 151.891 62.104 149.011 62.104H129.715V81.4H149.011ZM278.427 89.896C268.251 99.976 255.867 105.016 241.275 105.016C226.683 105.016 214.299 99.976 204.123 89.896C193.947 79.816 188.859 67.384 188.859 52.6C188.859 37.816 193.947 25.384 204.123 15.304C214.299 5.22399 226.683 0.183993 241.275 0.183993C255.867 0.183993 268.251 5.22399 278.427 15.304C288.603 25.384 293.691 37.816 293.691 52.6C293.691 67.384 288.603 79.816 278.427 89.896ZM220.251 74.2C225.915 79.768 232.923 82.552 241.275 82.552C249.627 82.552 256.587 79.768 262.155 74.2C267.819 68.632 270.651 61.432 270.651 52.6C270.651 43.768 267.819 36.568 262.155 31C256.587 25.432 249.627 22.648 241.275 22.648C232.923 22.648 225.915 25.432 220.251 31C214.683 36.568 211.899 43.768 211.899 52.6C211.899 61.432 214.683 68.632 220.251 74.2ZM372.216 95.656C364.92 101.896 355.608 105.016 344.28 105.016C332.952 105.016 323.64 101.896 316.344 95.656C309.048 89.416 305.4 81.016 305.4 70.456V2.19999H328.44V68.44C328.44 77.848 333.72 82.552 344.28 82.552C354.84 82.552 360.12 77.848 360.12 68.44V2.19999H383.16V70.456C383.16 81.016 379.512 89.416 372.216 95.656ZM467.616 2.19999V24.376H441.696V103H418.656V24.376H392.736V2.19999H467.616ZM580.118 95.656C572.822 101.896 563.51 105.016 552.182 105.016C540.854 105.016 531.542 101.896 524.246 95.656C516.95 89.416 513.302 81.016 513.302 70.456V2.19999H536.342V68.44C536.342 77.848 541.622 82.552 552.182 82.552C562.742 82.552 568.022 77.848 568.022 68.44V2.19999H591.062V70.456C591.062 81.016 587.414 89.416 580.118 95.656ZM643.118 105.016C632.846 105.016 624.254 102.808 617.342 98.392C610.526 93.88 605.678 87.784 602.798 80.104L622.67 68.584C626.702 77.896 633.758 82.552 643.838 82.552C652.958 82.552 657.518 79.816 657.518 74.344C657.518 71.368 656.03 69.064 653.054 67.432C650.174 65.704 644.702 63.736 636.638 61.528C632.414 60.376 628.718 59.08 625.55 57.64C622.382 56.2 619.262 54.328 616.19 52.024C613.214 49.624 610.91 46.648 609.278 43.096C607.742 39.544 606.974 35.464 606.974 30.856C606.974 21.544 610.286 14.104 616.91 8.536C623.63 2.96799 631.598 0.183993 640.814 0.183993C649.07 0.183993 656.366 2.15199 662.702 6.08799C669.038 9.928 674.03 15.544 677.678 22.936L658.238 34.312C656.414 30.472 654.158 27.592 651.47 25.672C648.782 23.656 645.23 22.648 640.814 22.648C637.358 22.648 634.67 23.416 632.75 24.952C630.926 26.392 630.014 28.168 630.014 30.28C630.014 32.776 631.166 34.936 633.47 36.76C635.87 38.584 640.766 40.6 648.158 42.808C652.19 44.056 655.31 45.064 657.518 45.832C659.726 46.6 662.51 47.896 665.87 49.72C669.326 51.448 671.918 53.32 673.646 55.336C675.47 57.256 677.054 59.848 678.398 63.112C679.838 66.28 680.558 69.928 680.558 74.056C680.558 83.656 677.102 91.24 670.19 96.808C663.278 102.28 654.254 105.016 643.118 105.016Z" fill="black" fill-opacity="0.05"/>
</svg>
