<svg width="21" height="26" viewBox="0 0 21 26" fill="none" xmlns="http://www.w3.org/2000/svg">
<path fill-rule="evenodd" clip-rule="evenodd" d="M0.275426 1.08622C0.362511 0.998911 0.465966 0.929643 0.579863 0.882381C0.69376 0.835119 0.815862 0.810791 0.939176 0.810791C1.06249 0.810791 1.18459 0.835119 1.29849 0.882381C1.41239 0.929643 1.51584 0.998911 1.60293 1.08622L12.8529 12.3362C12.9402 12.4233 13.0095 12.5268 13.0568 12.6407C13.104 12.7546 13.1284 12.8767 13.1284 13C13.1284 13.1233 13.104 13.2454 13.0568 13.3593C13.0095 13.4732 12.9402 13.5766 12.8529 13.6637L1.60293 24.9137C1.42689 25.0898 1.18813 25.1887 0.939176 25.1887C0.690221 25.1887 0.451463 25.0898 0.275426 24.9137C0.0993883 24.7377 0.000491738 24.4989 0.000491738 24.25C0.000491738 24.001 0.0993883 23.7623 0.275426 23.5862L10.8636 13L0.275426 2.41372C0.18812 2.32663 0.118852 2.22318 0.0715899 2.10928C0.0243279 1.99538 0 1.87328 0 1.74997C0 1.62665 0.0243279 1.50455 0.0715899 1.39065C0.118852 1.27676 0.18812 1.1733 0.275426 1.08622Z" fill="black" fill-opacity="0.3"/>
<path fill-rule="evenodd" clip-rule="evenodd" d="M7.77543 1.08622C7.86251 0.998911 7.96597 0.929643 8.07986 0.882381C8.19376 0.835119 8.31586 0.810791 8.43918 0.810791C8.56249 0.810791 8.68459 0.835119 8.79849 0.882381C8.91239 0.929643 9.01584 0.998911 9.10293 1.08622L20.3529 12.3362C20.4402 12.4233 20.5095 12.5268 20.5568 12.6407C20.604 12.7546 20.6284 12.8767 20.6284 13C20.6284 13.1233 20.604 13.2454 20.5568 13.3593C20.5095 13.4732 20.4402 13.5766 20.3529 13.6637L9.10293 24.9137C8.92689 25.0898 8.68813 25.1887 8.43918 25.1887C8.19022 25.1887 7.95146 25.0898 7.77543 24.9137C7.59939 24.7377 7.50049 24.4989 7.50049 24.25C7.50049 24.001 7.59939 23.7623 7.77543 23.5862L18.3636 13L7.77543 2.41372C7.68812 2.32663 7.61885 2.22318 7.57159 2.10928C7.52433 1.99538 7.5 1.87328 7.5 1.74997C7.5 1.62665 7.52433 1.50455 7.57159 1.39065C7.61885 1.27676 7.68812 1.1733 7.77543 1.08622Z" fill="black" fill-opacity="0.3"/>
</svg>
