<svg width="194" height="50" viewBox="0 0 194 50" fill="none" xmlns="http://www.w3.org/2000/svg">
<path d="M83.94 32H79.83L71.55 22.01V32H68.1V11H71.55V20.42L79.53 11H83.64L75.15 21.23L83.94 32ZM91.8292 32.39C89.6292 32.39 87.7592 31.63 86.2192 30.11C84.6792 28.59 83.9092 26.72 83.9092 24.5C83.9092 22.28 84.6792 20.41 86.2192 18.89C87.7592 17.37 89.6292 16.61 91.8292 16.61C94.0492 16.61 95.9192 17.37 97.4392 18.89C98.9792 20.41 99.7492 22.28 99.7492 24.5C99.7492 26.72 98.9792 28.59 97.4392 30.11C95.9192 31.63 94.0492 32.39 91.8292 32.39ZM88.4992 27.89C89.3992 28.79 90.5092 29.24 91.8292 29.24C93.1492 29.24 94.2592 28.79 95.1592 27.89C96.0592 26.99 96.5092 25.86 96.5092 24.5C96.5092 23.14 96.0592 22.01 95.1592 21.11C94.2592 20.21 93.1492 19.76 91.8292 19.76C90.5092 19.76 89.3992 20.21 88.4992 21.11C87.5992 22.01 87.1492 23.14 87.1492 24.5C87.1492 25.86 87.5992 26.99 88.4992 27.89ZM102.839 32V10.1H106.079V32H102.839ZM117.081 32.39C114.881 32.39 113.011 31.63 111.471 30.11C109.931 28.59 109.161 26.72 109.161 24.5C109.161 22.28 109.931 20.41 111.471 18.89C113.011 17.37 114.881 16.61 117.081 16.61C119.301 16.61 121.171 17.37 122.691 18.89C124.231 20.41 125.001 22.28 125.001 24.5C125.001 26.72 124.231 28.59 122.691 30.11C121.171 31.63 119.301 32.39 117.081 32.39ZM113.751 27.89C114.651 28.79 115.761 29.24 117.081 29.24C118.401 29.24 119.511 28.79 120.411 27.89C121.311 26.99 121.761 25.86 121.761 24.5C121.761 23.14 121.311 22.01 120.411 21.11C119.511 20.21 118.401 19.76 117.081 19.76C115.761 19.76 114.651 20.21 113.751 21.11C112.851 22.01 112.401 23.14 112.401 24.5C112.401 25.86 112.851 26.99 113.751 27.89ZM148.401 11V32H144.951V17.03L138.561 27.59H138.141L131.751 17V32H128.301V11H132.021L138.351 21.5L144.711 11H148.401ZM159.618 32.39C157.418 32.39 155.548 31.63 154.008 30.11C152.468 28.59 151.698 26.72 151.698 24.5C151.698 22.28 152.468 20.41 154.008 18.89C155.548 17.37 157.418 16.61 159.618 16.61C161.838 16.61 163.708 17.37 165.228 18.89C166.768 20.41 167.538 22.28 167.538 24.5C167.538 26.72 166.768 28.59 165.228 30.11C163.708 31.63 161.838 32.39 159.618 32.39ZM156.288 27.89C157.188 28.79 158.298 29.24 159.618 29.24C160.938 29.24 162.048 28.79 162.948 27.89C163.848 26.99 164.298 25.86 164.298 24.5C164.298 23.14 163.848 22.01 162.948 21.11C162.048 20.21 160.938 19.76 159.618 19.76C158.298 19.76 157.188 20.21 156.288 21.11C155.388 22.01 154.938 23.14 154.938 24.5C154.938 25.86 155.388 26.99 156.288 27.89ZM178.517 16.61C180.237 16.61 181.627 17.16 182.687 18.26C183.747 19.36 184.277 20.87 184.277 22.79V32H181.037V23.12C181.037 22 180.737 21.14 180.137 20.54C179.537 19.94 178.717 19.64 177.677 19.64C176.537 19.64 175.617 20 174.917 20.72C174.217 21.42 173.867 22.5 173.867 23.96V32H170.627V17H173.867V18.92C174.847 17.38 176.397 16.61 178.517 16.61ZM190.986 14.15C190.586 14.55 190.106 14.75 189.546 14.75C188.986 14.75 188.496 14.55 188.076 14.15C187.676 13.73 187.476 13.24 187.476 12.68C187.476 12.12 187.676 11.64 188.076 11.24C188.476 10.82 188.966 10.61 189.546 10.61C190.126 10.61 190.616 10.82 191.016 11.24C191.416 11.64 191.616 12.12 191.616 12.68C191.616 13.24 191.406 13.73 190.986 14.15ZM187.926 32V17H191.166V32H187.926Z" fill="#D5D5D5"/>
<path d="M4.69823 0.106758C3.04348 0.515999 1.19299 2.22414 0.48127 4.00344L0.0720293 5.01765L0.01865 20.6222C-0.0347292 37.9527 -0.0525223 37.6858 1.12182 39.5007C1.72679 40.4615 2.65203 41.2978 3.63065 41.8138C4.82278 42.4187 6.13947 42.4721 19.1462 42.4721H32.0106V46.2976C32.0106 49.9096 32.0284 50.1231 32.3309 49.963C32.491 49.8562 33.6832 48.8954 34.9465 47.7922C36.2276 46.7069 38.1492 45.0521 39.2524 44.1447L41.2274 42.4721H43.2559C46.7077 42.4721 48.2913 41.9917 49.7503 40.4793C50.1596 40.07 50.729 39.2338 50.9958 38.6466L51.4941 37.579V21.1204V4.66179L50.9069 3.46965C50.2663 2.15296 49.1632 1.04979 47.8465 0.427032L47.0458 0.0355835L26.1389 0C14.6446 0 5.00071 0.0355835 4.69823 0.106758ZM22.4379 10.4445L22.4913 16.3163L26.0499 12.3662C30.0534 7.91792 31.2099 6.63682 32.3665 5.4091L33.1672 4.55503L35.2668 4.60841L37.3485 4.66179L35.7116 6.53006C33.6476 8.87875 26.0499 17.4906 25.4806 18.1134L25.0535 18.576L28.025 22.6506C33.4697 30.1059 37.9891 36.3335 38.1314 36.547C38.2382 36.7249 37.7756 36.7783 36.0497 36.7783H33.8433L31.1388 33.1841C29.6441 31.1913 27.0819 27.7928 25.445 25.6221L22.4913 21.672L22.4379 29.2163L22.4024 36.7783H20.623H18.8437V31.1735V25.5687H16.0858H13.3279V23.7004V21.8321H16.0858H18.8437V19.9638V18.0956H16.0858H13.3279V16.1383V14.1811H16.0858H18.8437V9.37696V4.57282H20.623H22.4024L22.4379 10.4445Z" fill="#D5D5D5"/>
</svg>
