<svg width="862" height="106" viewBox="0 0 862 106" fill="none" xmlns="http://www.w3.org/2000/svg">
<path d="M-21.768 103L-49.56 2.19999H-25.368L-7.944 72.76L11.496 2.19999H30.216L49.656 72.76L67.08 2.19999H91.272L63.48 103H37.272L20.856 43.528L4.44 103H-21.768ZM156.239 2.19999H179.279V103H156.239V62.968H124.559V103H101.519V2.19999H124.559V40.792H156.239V2.19999ZM260.821 103L255.781 87.16H218.341L213.301 103H188.101L222.373 2.19999H251.749L286.021 103H260.821ZM225.253 65.56H248.869L237.061 28.552L225.253 65.56ZM355.284 2.19999V24.376H329.364V103H306.324V24.376H280.404V2.19999H355.284ZM422.282 103L394.49 2.19999H418.682L436.106 72.76L455.546 2.19999H474.266L493.706 72.76L511.13 2.19999H535.322L507.53 103H481.322L464.906 43.528L448.49 103H422.282ZM568.609 80.824H608.929V103H545.569V2.19999H608.209V24.376H568.609V41.08H604.609V62.968H568.609V80.824ZM698.568 2.19999C712.488 2.19999 724.104 7.04799 733.416 16.744C742.824 26.344 747.528 38.296 747.528 52.6C747.528 66.904 742.824 78.904 733.416 88.6C724.104 98.2 712.488 103 698.568 103H658.248V2.19999H698.568ZM698.568 80.824C706.536 80.824 712.968 78.28 717.864 73.192C722.856 68.008 725.352 61.144 725.352 52.6C725.352 44.056 722.856 37.24 717.864 32.152C712.968 26.968 706.536 24.376 698.568 24.376H681.288V80.824H698.568ZM845.891 89.896C835.715 99.976 823.331 105.016 808.739 105.016C794.147 105.016 781.763 99.976 771.587 89.896C761.411 79.816 756.323 67.384 756.323 52.6C756.323 37.816 761.411 25.384 771.587 15.304C781.763 5.22399 794.147 0.183993 808.739 0.183993C823.331 0.183993 835.715 5.22399 845.891 15.304C856.067 25.384 861.155 37.816 861.155 52.6C861.155 67.384 856.067 79.816 845.891 89.896ZM787.715 74.2C793.379 79.768 800.387 82.552 808.739 82.552C817.091 82.552 824.051 79.768 829.619 74.2C835.283 68.632 838.115 61.432 838.115 52.6C838.115 43.768 835.283 36.568 829.619 31C824.051 25.432 817.091 22.648 808.739 22.648C800.387 22.648 793.379 25.432 787.715 31C782.147 36.568 779.363 43.768 779.363 52.6C779.363 61.432 782.147 68.632 787.715 74.2Z" fill="#F7F9F6"/>
</svg>
